<svg xmlns="http://www.w3.org/2000/svg" width="189" height="90" viewBox="0 0 189 90">
    <g fill="none" fill-rule="evenodd">
        <path fill="#FFF" fill-opacity=".01" d="M0 0h189v90H0z"/>
        <g transform="translate(66.996 1.125)">
            <circle cx="27" cy="27" r="27" fill="#00AED6" fill-rule="nonzero"/>
            <path fill="#FFF" d="M41.072 17.835a6.605 6.605 0 0 0-5.427-5.986 61.022 61.022 0 0 0-8.645-.6 61.812 61.812 0 0 0-8.677.6 6.574 6.574 0 0 0-5.395 5.986c-.878 7.277-.878 17.138 1.235 23.03a.875.875 0 0 0 1.43.378c1.17-1.135 2.242-2.332 3.282-3.529a.823.823 0 0 1 1.398.252 47.407 47.407 0 0 0 2.047 4.316.841.841 0 0 0 1.43.126 60.283 60.283 0 0 0 2.665-3.938.642.642 0 0 1 1.17 0 49.569 49.569 0 0 0 2.665 3.938.841.841 0 0 0 1.43-.126 47.48 47.48 0 0 0 2.047-4.316.821.821 0 0 1 1.398-.252c1.04 1.197 2.112 2.394 3.282 3.529a.875.875 0 0 0 1.43-.378c2.112-5.892 2.112-15.784 1.235-23.03zm-12.384 9.107H18.563a1.067 1.067 0 0 1 0-2.134h10.125a1.067 1.067 0 0 1 0 2.134zm6.75-5.567H18.563a1.125 1.125 0 1 1 0-2.25h16.875a1.125 1.125 0 0 1 0 2.25z"/>
        </g>
        <g fill="#000" fill-rule="nonzero">
            <path d="M51.105 82.124a5.803 5.803 0 0 0 5.045 2.466c2.351 0 4.08-1.502 4.08-3.543V79.97h-.057a6.406 6.406 0 0 1-4.846 1.814 7.852 7.852 0 1 1-.142-15.7 6.748 6.748 0 0 1 4.988 1.756h.057v-1.473h4.025V80.99c0 4.25-3.372 7.198-8.105 7.198a9.686 9.686 0 0 1-8.05-3.57l3.005-2.495zm8.956-9.097c0-1.701-1.928-3.26-4.082-3.26-2.72 0-4.534 1.645-4.534 4.11a3.97 3.97 0 0 0 4.364 4.223c2.353 0 4.252-1.474 4.252-3.317v-1.756zM74.803 65.941c4.902 0 8.473 3.486 8.473 7.936 0 4.45-3.571 7.935-8.473 7.935a7.953 7.953 0 1 1 0-15.87zm0 3.684a4.251 4.251 0 1 0 4.279 4.252 4.07 4.07 0 0 0-4.28-4.252zM89.43 79.914v1.473h-3.882v-20.69h4.195v6.86h.056a7.171 7.171 0 0 1 4.876-1.616 7.82 7.82 0 0 1 8.02 7.936 7.734 7.734 0 0 1-8.135 7.935 6.626 6.626 0 0 1-5.073-1.898h-.056zm4.592-10.289c-2.296 0-4.28 1.475-4.28 3.26v1.898c0 1.843 1.9 3.317 4.28 3.317 2.72 0 4.478-1.645 4.478-4.223a4.17 4.17 0 0 0-4.478-4.252zM104.824 59.706h4.337V63.9h-4.337v-4.194zm.085 6.66h4.195v15.021h-4.195v-15.02zM111.912 60.698h4.195v20.69h-4.195zM118.913 60.698h4.194v20.69h-4.194zM129.005 75.578c.595 1.927 2.124 2.89 4.535 2.89 2.182 0 3.429-.482 3.429-1.304 0-.878-.907-1.276-3.713-1.7-5.498-.85-7.454-2.183-7.454-4.875 0-2.778 2.777-4.648 6.916-4.648 3.768 0 7.198 1.927 7.992 4.535l-3.826 1.162a4.263 4.263 0 0 0-4.195-2.352c-1.729 0-2.863.51-2.863 1.303 0 .794.794 1.077 4.11 1.644 5.073.794 7.086 2.182 7.086 4.902 0 2.806-3.004 4.677-7.51 4.677a10.33 10.33 0 0 1-5.613-1.445 5.949 5.949 0 0 1-2.834-3.854l3.94-.935z"/>
        </g>
    </g>
</svg>
